<svg xmlns="http://www.w3.org/2000/svg" id="Your_Icon" width="32" height="22" x="0" y="0" enable-background="new 0 0 100 100" version="1.1" viewBox="0 0 32 21.998" xml:space="preserve"><metadata id="metadata39"/><g id="g7" fill="#fff" transform="matrix(0.32033315,0,0,0.43137255,-0.03331465,-8.6498837)"><polygon id="polygon9" points="41.69 71.05 41.69 55.65 11.44 71.05"/><polygon id="polygon11" points=".104 65.34 22.37 53.91 .104 53.91"/><polygon id="polygon13" points="7.492 71.05 40.98 53.91 33.11 53.91 .664 71.05"/><polygon id="polygon15" points="88.67 20.05 58.41 20.05 58.41 35.45"/><polygon id="polygon17" points="100 37.19 100 25.76 77.74 37.19"/><polygon id="polygon19" points="67 37.19 99.44 20.05 92.61 20.05 59.12 37.19"/><polygon id="polygon21" points="41.69 35.45 41.69 20.05 11.44 20.05"/><polygon id="polygon23" points="22.37 37.19 .104 25.76 .104 37.19"/><polygon id="polygon25" points="26.08 37.19 34.15 37.19 .104 20.05 .104 23.97"/><polygon id="polygon27" points="88.67 71.05 58.41 55.65 58.41 71.05"/><polygon id="polygon29" points="100 65.34 100 53.91 77.74 53.91"/><polygon id="polygon31" points="100 67.13 74.02 53.91 65.96 53.91 100 71.05"/><polygon id="polygon33" points="55.12 40.07 55.12 20.05 44.9 20.05 44.9 40.07 .104 40.07 .104 50.47 44.9 50.47 44.9 71.05 55.12 71.05 55.12 50.47 100 50.47 100 40.07"/></g></svg>